<?xml version="1.0" encoding="UTF-8" standalone="no"?>
<!-- Created with Inkscape (http://www.inkscape.org/) -->

<svg
   xmlns:dc="http://purl.org/dc/elements/1.1/"
   xmlns:cc="http://creativecommons.org/ns#"
   xmlns:rdf="http://www.w3.org/1999/02/22-rdf-syntax-ns#"
   xmlns:svg="http://www.w3.org/2000/svg"
   xmlns="http://www.w3.org/2000/svg"
   xmlns:sodipodi="http://sodipodi.sourceforge.net/DTD/sodipodi-0.dtd"
   xmlns:inkscape="http://www.inkscape.org/namespaces/inkscape"
   width="79"
   height="74"
   id="svg2"
   version="1.1"
   inkscape:version="0.47 r22583"
   sodipodi:docname="triva.svg">
  <defs
     id="defs4">
    <inkscape:perspective
       sodipodi:type="inkscape:persp3d"
       inkscape:vp_x="0 : 526.18109 : 1"
       inkscape:vp_y="0 : 1000 : 0"
       inkscape:vp_z="744.09448 : 526.18109 : 1"
       inkscape:persp3d-origin="372.04724 : 350.78739 : 1"
       id="perspective10" />
    <inkscape:perspective
       sodipodi:type="inkscape:persp3d"
       inkscape:vp_x="0 : 0.5 : 1"
       inkscape:vp_y="0 : 1000 : 0"
       inkscape:vp_z="1 : 0.5 : 1"
       inkscape:persp3d-origin="0.5 : 0.33333333 : 1"
       id="perspective4235" />
    <inkscape:perspective
       sodipodi:type="inkscape:persp3d"
       inkscape:vp_x="0 : 526.18109 : 1"
       inkscape:vp_y="0 : 1000 : 0"
       inkscape:vp_z="744.09448 : 526.18109 : 1"
       inkscape:persp3d-origin="372.04724 : 350.78739 : 1"
       id="perspective10-4" />
    <inkscape:perspective
       id="perspective2824-8"
       inkscape:persp3d-origin="0.5 : 0.33333333 : 1"
       inkscape:vp_z="1 : 0.5 : 1"
       inkscape:vp_y="0 : 1000 : 0"
       inkscape:vp_x="0 : 0.5 : 1"
       sodipodi:type="inkscape:persp3d" />
    <inkscape:perspective
       id="perspective3664-2"
       inkscape:persp3d-origin="0.5 : 0.33333333 : 1"
       inkscape:vp_z="1 : 0.5 : 1"
       inkscape:vp_y="0 : 1000 : 0"
       inkscape:vp_x="0 : 0.5 : 1"
       sodipodi:type="inkscape:persp3d" />
    <inkscape:perspective
       id="perspective3686-3"
       inkscape:persp3d-origin="0.5 : 0.33333333 : 1"
       inkscape:vp_z="1 : 0.5 : 1"
       inkscape:vp_y="0 : 1000 : 0"
       inkscape:vp_x="0 : 0.5 : 1"
       sodipodi:type="inkscape:persp3d" />
    <inkscape:perspective
       id="perspective3708-6"
       inkscape:persp3d-origin="0.5 : 0.33333333 : 1"
       inkscape:vp_z="1 : 0.5 : 1"
       inkscape:vp_y="0 : 1000 : 0"
       inkscape:vp_x="0 : 0.5 : 1"
       sodipodi:type="inkscape:persp3d" />
    <inkscape:perspective
       id="perspective3742-0"
       inkscape:persp3d-origin="0.5 : 0.33333333 : 1"
       inkscape:vp_z="1 : 0.5 : 1"
       inkscape:vp_y="0 : 1000 : 0"
       inkscape:vp_x="0 : 0.5 : 1"
       sodipodi:type="inkscape:persp3d" />
    <inkscape:perspective
       id="perspective3764-9"
       inkscape:persp3d-origin="0.5 : 0.33333333 : 1"
       inkscape:vp_z="1 : 0.5 : 1"
       inkscape:vp_y="0 : 1000 : 0"
       inkscape:vp_x="0 : 0.5 : 1"
       sodipodi:type="inkscape:persp3d" />
    <inkscape:perspective
       id="perspective3786-0"
       inkscape:persp3d-origin="0.5 : 0.33333333 : 1"
       inkscape:vp_z="1 : 0.5 : 1"
       inkscape:vp_y="0 : 1000 : 0"
       inkscape:vp_x="0 : 0.5 : 1"
       sodipodi:type="inkscape:persp3d" />
    <inkscape:perspective
       id="perspective3879-81"
       inkscape:persp3d-origin="0.5 : 0.33333333 : 1"
       inkscape:vp_z="1 : 0.5 : 1"
       inkscape:vp_y="0 : 1000 : 0"
       inkscape:vp_x="0 : 0.5 : 1"
       sodipodi:type="inkscape:persp3d" />
    <inkscape:perspective
       id="perspective3879-2-1"
       inkscape:persp3d-origin="0.5 : 0.33333333 : 1"
       inkscape:vp_z="1 : 0.5 : 1"
       inkscape:vp_y="0 : 1000 : 0"
       inkscape:vp_x="0 : 0.5 : 1"
       sodipodi:type="inkscape:persp3d" />
    <inkscape:perspective
       id="perspective3879-7-9"
       inkscape:persp3d-origin="0.5 : 0.33333333 : 1"
       inkscape:vp_z="1 : 0.5 : 1"
       inkscape:vp_y="0 : 1000 : 0"
       inkscape:vp_x="0 : 0.5 : 1"
       sodipodi:type="inkscape:persp3d" />
    <inkscape:perspective
       id="perspective3879-8-9"
       inkscape:persp3d-origin="0.5 : 0.33333333 : 1"
       inkscape:vp_z="1 : 0.5 : 1"
       inkscape:vp_y="0 : 1000 : 0"
       inkscape:vp_x="0 : 0.5 : 1"
       sodipodi:type="inkscape:persp3d" />
    <inkscape:perspective
       id="perspective3879-5-3"
       inkscape:persp3d-origin="0.5 : 0.33333333 : 1"
       inkscape:vp_z="1 : 0.5 : 1"
       inkscape:vp_y="0 : 1000 : 0"
       inkscape:vp_x="0 : 0.5 : 1"
       sodipodi:type="inkscape:persp3d" />
    <inkscape:perspective
       id="perspective3879-78-9"
       inkscape:persp3d-origin="0.5 : 0.33333333 : 1"
       inkscape:vp_z="1 : 0.5 : 1"
       inkscape:vp_y="0 : 1000 : 0"
       inkscape:vp_x="0 : 0.5 : 1"
       sodipodi:type="inkscape:persp3d" />
    <inkscape:perspective
       id="perspective3879-3-9"
       inkscape:persp3d-origin="0.5 : 0.33333333 : 1"
       inkscape:vp_z="1 : 0.5 : 1"
       inkscape:vp_y="0 : 1000 : 0"
       inkscape:vp_x="0 : 0.5 : 1"
       sodipodi:type="inkscape:persp3d" />
    <inkscape:perspective
       id="perspective3879-6-1"
       inkscape:persp3d-origin="0.5 : 0.33333333 : 1"
       inkscape:vp_z="1 : 0.5 : 1"
       inkscape:vp_y="0 : 1000 : 0"
       inkscape:vp_x="0 : 0.5 : 1"
       sodipodi:type="inkscape:persp3d" />
    <inkscape:perspective
       id="perspective3879-56-2"
       inkscape:persp3d-origin="0.5 : 0.33333333 : 1"
       inkscape:vp_z="1 : 0.5 : 1"
       inkscape:vp_y="0 : 1000 : 0"
       inkscape:vp_x="0 : 0.5 : 1"
       sodipodi:type="inkscape:persp3d" />
    <inkscape:perspective
       id="perspective3879-37-6"
       inkscape:persp3d-origin="0.5 : 0.33333333 : 1"
       inkscape:vp_z="1 : 0.5 : 1"
       inkscape:vp_y="0 : 1000 : 0"
       inkscape:vp_x="0 : 0.5 : 1"
       sodipodi:type="inkscape:persp3d" />
    <inkscape:perspective
       id="perspective3879-9-4"
       inkscape:persp3d-origin="0.5 : 0.33333333 : 1"
       inkscape:vp_z="1 : 0.5 : 1"
       inkscape:vp_y="0 : 1000 : 0"
       inkscape:vp_x="0 : 0.5 : 1"
       sodipodi:type="inkscape:persp3d" />
    <inkscape:perspective
       id="perspective3995-79"
       inkscape:persp3d-origin="0.5 : 0.33333333 : 1"
       inkscape:vp_z="1 : 0.5 : 1"
       inkscape:vp_y="0 : 1000 : 0"
       inkscape:vp_x="0 : 0.5 : 1"
       sodipodi:type="inkscape:persp3d" />
    <inkscape:perspective
       id="perspective3995-0-3"
       inkscape:persp3d-origin="0.5 : 0.33333333 : 1"
       inkscape:vp_z="1 : 0.5 : 1"
       inkscape:vp_y="0 : 1000 : 0"
       inkscape:vp_x="0 : 0.5 : 1"
       sodipodi:type="inkscape:persp3d" />
    <inkscape:perspective
       id="perspective3995-7-2"
       inkscape:persp3d-origin="0.5 : 0.33333333 : 1"
       inkscape:vp_z="1 : 0.5 : 1"
       inkscape:vp_y="0 : 1000 : 0"
       inkscape:vp_x="0 : 0.5 : 1"
       sodipodi:type="inkscape:persp3d" />
    <inkscape:perspective
       id="perspective3995-8-8"
       inkscape:persp3d-origin="0.5 : 0.33333333 : 1"
       inkscape:vp_z="1 : 0.5 : 1"
       inkscape:vp_y="0 : 1000 : 0"
       inkscape:vp_x="0 : 0.5 : 1"
       sodipodi:type="inkscape:persp3d" />
    <inkscape:perspective
       id="perspective3995-6-7"
       inkscape:persp3d-origin="0.5 : 0.33333333 : 1"
       inkscape:vp_z="1 : 0.5 : 1"
       inkscape:vp_y="0 : 1000 : 0"
       inkscape:vp_x="0 : 0.5 : 1"
       sodipodi:type="inkscape:persp3d" />
    <inkscape:perspective
       id="perspective4055-5"
       inkscape:persp3d-origin="0.5 : 0.33333333 : 1"
       inkscape:vp_z="1 : 0.5 : 1"
       inkscape:vp_y="0 : 1000 : 0"
       inkscape:vp_x="0 : 0.5 : 1"
       sodipodi:type="inkscape:persp3d" />
    <inkscape:perspective
       id="perspective4077-6"
       inkscape:persp3d-origin="0.5 : 0.33333333 : 1"
       inkscape:vp_z="1 : 0.5 : 1"
       inkscape:vp_y="0 : 1000 : 0"
       inkscape:vp_x="0 : 0.5 : 1"
       sodipodi:type="inkscape:persp3d" />
    <inkscape:perspective
       id="perspective4099-0"
       inkscape:persp3d-origin="0.5 : 0.33333333 : 1"
       inkscape:vp_z="1 : 0.5 : 1"
       inkscape:vp_y="0 : 1000 : 0"
       inkscape:vp_x="0 : 0.5 : 1"
       sodipodi:type="inkscape:persp3d" />
    <inkscape:perspective
       id="perspective4121-4"
       inkscape:persp3d-origin="0.5 : 0.33333333 : 1"
       inkscape:vp_z="1 : 0.5 : 1"
       inkscape:vp_y="0 : 1000 : 0"
       inkscape:vp_x="0 : 0.5 : 1"
       sodipodi:type="inkscape:persp3d" />
    <inkscape:perspective
       id="perspective4143-6"
       inkscape:persp3d-origin="0.5 : 0.33333333 : 1"
       inkscape:vp_z="1 : 0.5 : 1"
       inkscape:vp_y="0 : 1000 : 0"
       inkscape:vp_x="0 : 0.5 : 1"
       sodipodi:type="inkscape:persp3d" />
    <inkscape:perspective
       id="perspective4165-9"
       inkscape:persp3d-origin="0.5 : 0.33333333 : 1"
       inkscape:vp_z="1 : 0.5 : 1"
       inkscape:vp_y="0 : 1000 : 0"
       inkscape:vp_x="0 : 0.5 : 1"
       sodipodi:type="inkscape:persp3d" />
    <inkscape:perspective
       id="perspective4187-6"
       inkscape:persp3d-origin="0.5 : 0.33333333 : 1"
       inkscape:vp_z="1 : 0.5 : 1"
       inkscape:vp_y="0 : 1000 : 0"
       inkscape:vp_x="0 : 0.5 : 1"
       sodipodi:type="inkscape:persp3d" />
    <inkscape:perspective
       id="perspective4209-8"
       inkscape:persp3d-origin="0.5 : 0.33333333 : 1"
       inkscape:vp_z="1 : 0.5 : 1"
       inkscape:vp_y="0 : 1000 : 0"
       inkscape:vp_x="0 : 0.5 : 1"
       sodipodi:type="inkscape:persp3d" />
    <inkscape:perspective
       id="perspective4231-9"
       inkscape:persp3d-origin="0.5 : 0.33333333 : 1"
       inkscape:vp_z="1 : 0.5 : 1"
       inkscape:vp_y="0 : 1000 : 0"
       inkscape:vp_x="0 : 0.5 : 1"
       sodipodi:type="inkscape:persp3d" />
    <inkscape:perspective
       id="perspective4253-6"
       inkscape:persp3d-origin="0.5 : 0.33333333 : 1"
       inkscape:vp_z="1 : 0.5 : 1"
       inkscape:vp_y="0 : 1000 : 0"
       inkscape:vp_x="0 : 0.5 : 1"
       sodipodi:type="inkscape:persp3d" />
    <inkscape:perspective
       id="perspective4275-8"
       inkscape:persp3d-origin="0.5 : 0.33333333 : 1"
       inkscape:vp_z="1 : 0.5 : 1"
       inkscape:vp_y="0 : 1000 : 0"
       inkscape:vp_x="0 : 0.5 : 1"
       sodipodi:type="inkscape:persp3d" />
    <inkscape:perspective
       id="perspective4297-5"
       inkscape:persp3d-origin="0.5 : 0.33333333 : 1"
       inkscape:vp_z="1 : 0.5 : 1"
       inkscape:vp_y="0 : 1000 : 0"
       inkscape:vp_x="0 : 0.5 : 1"
       sodipodi:type="inkscape:persp3d" />
    <inkscape:perspective
       id="perspective4319-9"
       inkscape:persp3d-origin="0.5 : 0.33333333 : 1"
       inkscape:vp_z="1 : 0.5 : 1"
       inkscape:vp_y="0 : 1000 : 0"
       inkscape:vp_x="0 : 0.5 : 1"
       sodipodi:type="inkscape:persp3d" />
    <inkscape:perspective
       sodipodi:type="inkscape:persp3d"
       inkscape:vp_x="0 : 0.5 : 1"
       inkscape:vp_y="0 : 1000 : 0"
       inkscape:vp_z="1 : 0.5 : 1"
       inkscape:persp3d-origin="0.5 : 0.33333333 : 1"
       id="perspective3904" />
    <inkscape:perspective
       sodipodi:type="inkscape:persp3d"
       inkscape:vp_x="0 : 0.5 : 1"
       inkscape:vp_y="0 : 1000 : 0"
       inkscape:vp_z="1 : 0.5 : 1"
       inkscape:persp3d-origin="0.5 : 0.33333333 : 1"
       id="perspective3882" />
    <inkscape:perspective
       sodipodi:type="inkscape:persp3d"
       inkscape:vp_x="0 : 526.18109 : 1"
       inkscape:vp_y="0 : 1000 : 0"
       inkscape:vp_z="744.09448 : 526.18109 : 1"
       inkscape:persp3d-origin="372.04724 : 350.78739 : 1"
       id="perspective10-7" />
    <inkscape:perspective
       id="perspective2824-6"
       inkscape:persp3d-origin="0.5 : 0.33333333 : 1"
       inkscape:vp_z="1 : 0.5 : 1"
       inkscape:vp_y="0 : 1000 : 0"
       inkscape:vp_x="0 : 0.5 : 1"
       sodipodi:type="inkscape:persp3d" />
    <inkscape:perspective
       id="perspective3664"
       inkscape:persp3d-origin="0.5 : 0.33333333 : 1"
       inkscape:vp_z="1 : 0.5 : 1"
       inkscape:vp_y="0 : 1000 : 0"
       inkscape:vp_x="0 : 0.5 : 1"
       sodipodi:type="inkscape:persp3d" />
    <inkscape:perspective
       id="perspective3686"
       inkscape:persp3d-origin="0.5 : 0.33333333 : 1"
       inkscape:vp_z="1 : 0.5 : 1"
       inkscape:vp_y="0 : 1000 : 0"
       inkscape:vp_x="0 : 0.5 : 1"
       sodipodi:type="inkscape:persp3d" />
    <inkscape:perspective
       id="perspective3708"
       inkscape:persp3d-origin="0.5 : 0.33333333 : 1"
       inkscape:vp_z="1 : 0.5 : 1"
       inkscape:vp_y="0 : 1000 : 0"
       inkscape:vp_x="0 : 0.5 : 1"
       sodipodi:type="inkscape:persp3d" />
    <inkscape:perspective
       id="perspective3742"
       inkscape:persp3d-origin="0.5 : 0.33333333 : 1"
       inkscape:vp_z="1 : 0.5 : 1"
       inkscape:vp_y="0 : 1000 : 0"
       inkscape:vp_x="0 : 0.5 : 1"
       sodipodi:type="inkscape:persp3d" />
    <inkscape:perspective
       id="perspective3764"
       inkscape:persp3d-origin="0.5 : 0.33333333 : 1"
       inkscape:vp_z="1 : 0.5 : 1"
       inkscape:vp_y="0 : 1000 : 0"
       inkscape:vp_x="0 : 0.5 : 1"
       sodipodi:type="inkscape:persp3d" />
    <inkscape:perspective
       id="perspective3786"
       inkscape:persp3d-origin="0.5 : 0.33333333 : 1"
       inkscape:vp_z="1 : 0.5 : 1"
       inkscape:vp_y="0 : 1000 : 0"
       inkscape:vp_x="0 : 0.5 : 1"
       sodipodi:type="inkscape:persp3d" />
    <inkscape:perspective
       id="perspective3879"
       inkscape:persp3d-origin="0.5 : 0.33333333 : 1"
       inkscape:vp_z="1 : 0.5 : 1"
       inkscape:vp_y="0 : 1000 : 0"
       inkscape:vp_x="0 : 0.5 : 1"
       sodipodi:type="inkscape:persp3d" />
    <inkscape:perspective
       id="perspective3879-2"
       inkscape:persp3d-origin="0.5 : 0.33333333 : 1"
       inkscape:vp_z="1 : 0.5 : 1"
       inkscape:vp_y="0 : 1000 : 0"
       inkscape:vp_x="0 : 0.5 : 1"
       sodipodi:type="inkscape:persp3d" />
    <inkscape:perspective
       id="perspective3879-7"
       inkscape:persp3d-origin="0.5 : 0.33333333 : 1"
       inkscape:vp_z="1 : 0.5 : 1"
       inkscape:vp_y="0 : 1000 : 0"
       inkscape:vp_x="0 : 0.5 : 1"
       sodipodi:type="inkscape:persp3d" />
    <inkscape:perspective
       id="perspective3879-8"
       inkscape:persp3d-origin="0.5 : 0.33333333 : 1"
       inkscape:vp_z="1 : 0.5 : 1"
       inkscape:vp_y="0 : 1000 : 0"
       inkscape:vp_x="0 : 0.5 : 1"
       sodipodi:type="inkscape:persp3d" />
    <inkscape:perspective
       id="perspective3879-5"
       inkscape:persp3d-origin="0.5 : 0.33333333 : 1"
       inkscape:vp_z="1 : 0.5 : 1"
       inkscape:vp_y="0 : 1000 : 0"
       inkscape:vp_x="0 : 0.5 : 1"
       sodipodi:type="inkscape:persp3d" />
    <inkscape:perspective
       id="perspective3879-78"
       inkscape:persp3d-origin="0.5 : 0.33333333 : 1"
       inkscape:vp_z="1 : 0.5 : 1"
       inkscape:vp_y="0 : 1000 : 0"
       inkscape:vp_x="0 : 0.5 : 1"
       sodipodi:type="inkscape:persp3d" />
    <inkscape:perspective
       id="perspective3879-3"
       inkscape:persp3d-origin="0.5 : 0.33333333 : 1"
       inkscape:vp_z="1 : 0.5 : 1"
       inkscape:vp_y="0 : 1000 : 0"
       inkscape:vp_x="0 : 0.5 : 1"
       sodipodi:type="inkscape:persp3d" />
    <inkscape:perspective
       id="perspective3879-6"
       inkscape:persp3d-origin="0.5 : 0.33333333 : 1"
       inkscape:vp_z="1 : 0.5 : 1"
       inkscape:vp_y="0 : 1000 : 0"
       inkscape:vp_x="0 : 0.5 : 1"
       sodipodi:type="inkscape:persp3d" />
    <inkscape:perspective
       id="perspective3879-56"
       inkscape:persp3d-origin="0.5 : 0.33333333 : 1"
       inkscape:vp_z="1 : 0.5 : 1"
       inkscape:vp_y="0 : 1000 : 0"
       inkscape:vp_x="0 : 0.5 : 1"
       sodipodi:type="inkscape:persp3d" />
    <inkscape:perspective
       id="perspective3879-37"
       inkscape:persp3d-origin="0.5 : 0.33333333 : 1"
       inkscape:vp_z="1 : 0.5 : 1"
       inkscape:vp_y="0 : 1000 : 0"
       inkscape:vp_x="0 : 0.5 : 1"
       sodipodi:type="inkscape:persp3d" />
    <inkscape:perspective
       id="perspective3879-9"
       inkscape:persp3d-origin="0.5 : 0.33333333 : 1"
       inkscape:vp_z="1 : 0.5 : 1"
       inkscape:vp_y="0 : 1000 : 0"
       inkscape:vp_x="0 : 0.5 : 1"
       sodipodi:type="inkscape:persp3d" />
    <inkscape:perspective
       id="perspective3995"
       inkscape:persp3d-origin="0.5 : 0.33333333 : 1"
       inkscape:vp_z="1 : 0.5 : 1"
       inkscape:vp_y="0 : 1000 : 0"
       inkscape:vp_x="0 : 0.5 : 1"
       sodipodi:type="inkscape:persp3d" />
    <inkscape:perspective
       id="perspective3995-0"
       inkscape:persp3d-origin="0.5 : 0.33333333 : 1"
       inkscape:vp_z="1 : 0.5 : 1"
       inkscape:vp_y="0 : 1000 : 0"
       inkscape:vp_x="0 : 0.5 : 1"
       sodipodi:type="inkscape:persp3d" />
    <inkscape:perspective
       id="perspective3995-7"
       inkscape:persp3d-origin="0.5 : 0.33333333 : 1"
       inkscape:vp_z="1 : 0.5 : 1"
       inkscape:vp_y="0 : 1000 : 0"
       inkscape:vp_x="0 : 0.5 : 1"
       sodipodi:type="inkscape:persp3d" />
    <inkscape:perspective
       id="perspective3995-8"
       inkscape:persp3d-origin="0.5 : 0.33333333 : 1"
       inkscape:vp_z="1 : 0.5 : 1"
       inkscape:vp_y="0 : 1000 : 0"
       inkscape:vp_x="0 : 0.5 : 1"
       sodipodi:type="inkscape:persp3d" />
    <inkscape:perspective
       id="perspective3995-6"
       inkscape:persp3d-origin="0.5 : 0.33333333 : 1"
       inkscape:vp_z="1 : 0.5 : 1"
       inkscape:vp_y="0 : 1000 : 0"
       inkscape:vp_x="0 : 0.5 : 1"
       sodipodi:type="inkscape:persp3d" />
    <inkscape:perspective
       id="perspective4055"
       inkscape:persp3d-origin="0.5 : 0.33333333 : 1"
       inkscape:vp_z="1 : 0.5 : 1"
       inkscape:vp_y="0 : 1000 : 0"
       inkscape:vp_x="0 : 0.5 : 1"
       sodipodi:type="inkscape:persp3d" />
    <inkscape:perspective
       id="perspective4077"
       inkscape:persp3d-origin="0.5 : 0.33333333 : 1"
       inkscape:vp_z="1 : 0.5 : 1"
       inkscape:vp_y="0 : 1000 : 0"
       inkscape:vp_x="0 : 0.5 : 1"
       sodipodi:type="inkscape:persp3d" />
    <inkscape:perspective
       id="perspective4099"
       inkscape:persp3d-origin="0.5 : 0.33333333 : 1"
       inkscape:vp_z="1 : 0.5 : 1"
       inkscape:vp_y="0 : 1000 : 0"
       inkscape:vp_x="0 : 0.5 : 1"
       sodipodi:type="inkscape:persp3d" />
    <inkscape:perspective
       id="perspective4121"
       inkscape:persp3d-origin="0.5 : 0.33333333 : 1"
       inkscape:vp_z="1 : 0.5 : 1"
       inkscape:vp_y="0 : 1000 : 0"
       inkscape:vp_x="0 : 0.5 : 1"
       sodipodi:type="inkscape:persp3d" />
    <inkscape:perspective
       id="perspective4143"
       inkscape:persp3d-origin="0.5 : 0.33333333 : 1"
       inkscape:vp_z="1 : 0.5 : 1"
       inkscape:vp_y="0 : 1000 : 0"
       inkscape:vp_x="0 : 0.5 : 1"
       sodipodi:type="inkscape:persp3d" />
    <inkscape:perspective
       id="perspective4165"
       inkscape:persp3d-origin="0.5 : 0.33333333 : 1"
       inkscape:vp_z="1 : 0.5 : 1"
       inkscape:vp_y="0 : 1000 : 0"
       inkscape:vp_x="0 : 0.5 : 1"
       sodipodi:type="inkscape:persp3d" />
    <inkscape:perspective
       id="perspective4187"
       inkscape:persp3d-origin="0.5 : 0.33333333 : 1"
       inkscape:vp_z="1 : 0.5 : 1"
       inkscape:vp_y="0 : 1000 : 0"
       inkscape:vp_x="0 : 0.5 : 1"
       sodipodi:type="inkscape:persp3d" />
    <inkscape:perspective
       id="perspective4209"
       inkscape:persp3d-origin="0.5 : 0.33333333 : 1"
       inkscape:vp_z="1 : 0.5 : 1"
       inkscape:vp_y="0 : 1000 : 0"
       inkscape:vp_x="0 : 0.5 : 1"
       sodipodi:type="inkscape:persp3d" />
    <inkscape:perspective
       id="perspective4231"
       inkscape:persp3d-origin="0.5 : 0.33333333 : 1"
       inkscape:vp_z="1 : 0.5 : 1"
       inkscape:vp_y="0 : 1000 : 0"
       inkscape:vp_x="0 : 0.5 : 1"
       sodipodi:type="inkscape:persp3d" />
    <inkscape:perspective
       id="perspective4253"
       inkscape:persp3d-origin="0.5 : 0.33333333 : 1"
       inkscape:vp_z="1 : 0.5 : 1"
       inkscape:vp_y="0 : 1000 : 0"
       inkscape:vp_x="0 : 0.5 : 1"
       sodipodi:type="inkscape:persp3d" />
    <inkscape:perspective
       id="perspective4275"
       inkscape:persp3d-origin="0.5 : 0.33333333 : 1"
       inkscape:vp_z="1 : 0.5 : 1"
       inkscape:vp_y="0 : 1000 : 0"
       inkscape:vp_x="0 : 0.5 : 1"
       sodipodi:type="inkscape:persp3d" />
    <inkscape:perspective
       id="perspective4297"
       inkscape:persp3d-origin="0.5 : 0.33333333 : 1"
       inkscape:vp_z="1 : 0.5 : 1"
       inkscape:vp_y="0 : 1000 : 0"
       inkscape:vp_x="0 : 0.5 : 1"
       sodipodi:type="inkscape:persp3d" />
    <inkscape:perspective
       id="perspective4319"
       inkscape:persp3d-origin="0.5 : 0.33333333 : 1"
       inkscape:vp_z="1 : 0.5 : 1"
       inkscape:vp_y="0 : 1000 : 0"
       inkscape:vp_x="0 : 0.5 : 1"
       sodipodi:type="inkscape:persp3d" />
    <inkscape:perspective
       sodipodi:type="inkscape:persp3d"
       inkscape:vp_x="0 : 0.5 : 1"
       inkscape:vp_y="0 : 1000 : 0"
       inkscape:vp_z="1 : 0.5 : 1"
       inkscape:persp3d-origin="0.5 : 0.33333333 : 1"
       id="perspective2844" />
    <inkscape:perspective
       sodipodi:type="inkscape:persp3d"
       inkscape:vp_x="0 : 0.5 : 1"
       inkscape:vp_y="0 : 1000 : 0"
       inkscape:vp_z="1 : 0.5 : 1"
       inkscape:persp3d-origin="0.5 : 0.33333333 : 1"
       id="perspective2824" />
    <inkscape:perspective
       id="perspective10-6"
       inkscape:persp3d-origin="372.04724 : 350.78739 : 1"
       inkscape:vp_z="744.09448 : 526.18109 : 1"
       inkscape:vp_y="0 : 1000 : 0"
       inkscape:vp_x="0 : 526.18109 : 1"
       sodipodi:type="inkscape:persp3d" />
    <inkscape:perspective
       id="perspective3052"
       inkscape:persp3d-origin="0.5 : 0.33333333 : 1"
       inkscape:vp_z="1 : 0.5 : 1"
       inkscape:vp_y="0 : 1000 : 0"
       inkscape:vp_x="0 : 0.5 : 1"
       sodipodi:type="inkscape:persp3d" />
    <inkscape:perspective
       id="perspective3850"
       inkscape:persp3d-origin="0.5 : 0.33333333 : 1"
       inkscape:vp_z="1 : 0.5 : 1"
       inkscape:vp_y="0 : 1000 : 0"
       inkscape:vp_x="0 : 0.5 : 1"
       sodipodi:type="inkscape:persp3d" />
    <inkscape:perspective
       id="perspective3872"
       inkscape:persp3d-origin="0.5 : 0.33333333 : 1"
       inkscape:vp_z="1 : 0.5 : 1"
       inkscape:vp_y="0 : 1000 : 0"
       inkscape:vp_x="0 : 0.5 : 1"
       sodipodi:type="inkscape:persp3d" />
    <inkscape:perspective
       id="perspective3896"
       inkscape:persp3d-origin="0.5 : 0.33333333 : 1"
       inkscape:vp_z="1 : 0.5 : 1"
       inkscape:vp_y="0 : 1000 : 0"
       inkscape:vp_x="0 : 0.5 : 1"
       sodipodi:type="inkscape:persp3d" />
    <inkscape:perspective
       id="perspective3918"
       inkscape:persp3d-origin="0.5 : 0.33333333 : 1"
       inkscape:vp_z="1 : 0.5 : 1"
       inkscape:vp_y="0 : 1000 : 0"
       inkscape:vp_x="0 : 0.5 : 1"
       sodipodi:type="inkscape:persp3d" />
    <inkscape:perspective
       id="perspective3918-3"
       inkscape:persp3d-origin="0.5 : 0.33333333 : 1"
       inkscape:vp_z="1 : 0.5 : 1"
       inkscape:vp_y="0 : 1000 : 0"
       inkscape:vp_x="0 : 0.5 : 1"
       sodipodi:type="inkscape:persp3d" />
    <inkscape:perspective
       id="perspective3951"
       inkscape:persp3d-origin="0.5 : 0.33333333 : 1"
       inkscape:vp_z="1 : 0.5 : 1"
       inkscape:vp_y="0 : 1000 : 0"
       inkscape:vp_x="0 : 0.5 : 1"
       sodipodi:type="inkscape:persp3d" />
    <inkscape:perspective
       id="perspective3975"
       inkscape:persp3d-origin="0.5 : 0.33333333 : 1"
       inkscape:vp_z="1 : 0.5 : 1"
       inkscape:vp_y="0 : 1000 : 0"
       inkscape:vp_x="0 : 0.5 : 1"
       sodipodi:type="inkscape:persp3d" />
    <inkscape:perspective
       id="perspective3997"
       inkscape:persp3d-origin="0.5 : 0.33333333 : 1"
       inkscape:vp_z="1 : 0.5 : 1"
       inkscape:vp_y="0 : 1000 : 0"
       inkscape:vp_x="0 : 0.5 : 1"
       sodipodi:type="inkscape:persp3d" />
    <inkscape:perspective
       id="perspective4019"
       inkscape:persp3d-origin="0.5 : 0.33333333 : 1"
       inkscape:vp_z="1 : 0.5 : 1"
       inkscape:vp_y="0 : 1000 : 0"
       inkscape:vp_x="0 : 0.5 : 1"
       sodipodi:type="inkscape:persp3d" />
    <inkscape:perspective
       id="perspective4041"
       inkscape:persp3d-origin="0.5 : 0.33333333 : 1"
       inkscape:vp_z="1 : 0.5 : 1"
       inkscape:vp_y="0 : 1000 : 0"
       inkscape:vp_x="0 : 0.5 : 1"
       sodipodi:type="inkscape:persp3d" />
  </defs>
  <sodipodi:namedview
     id="base"
     pagecolor="#ffffff"
     bordercolor="#666666"
     borderopacity="1.0"
     inkscape:pageopacity="0.0"
     inkscape:pageshadow="2"
     inkscape:zoom="3.959798"
     inkscape:cx="63.462917"
     inkscape:cy="51.850147"
     inkscape:document-units="px"
     inkscape:current-layer="layer1"
     showgrid="false"
     inkscape:window-width="1205"
     inkscape:window-height="821"
     inkscape:window-x="2068"
     inkscape:window-y="25"
     inkscape:window-maximized="0" />
  <metadata
     id="metadata7">
    <rdf:RDF>
      <cc:Work
         rdf:about="">
        <dc:format>image/svg+xml</dc:format>
        <dc:type
           rdf:resource="http://purl.org/dc/dcmitype/StillImage" />
        <dc:title></dc:title>
      </cc:Work>
    </rdf:RDF>
  </metadata>
  <g
     inkscape:label="Layer 1"
     inkscape:groupmode="layer"
     id="layer1"
     transform="translate(-816.90733,-456.0393)">
    <path
       style="opacity:0.62195123;fill:#cccccc;fill-opacity:1;stroke:none"
       d=""
       id="path4095" />
    <g
       id="g4290"
       transform="matrix(0.37053945,0,0,0.37053945,452.03209,318.54616)">
      <g
         transform="translate(114.10715,235.35714)"
         id="g4209">
        <path
           style="fill:#ff9955;stroke:#000000;stroke-width:1px;stroke-linecap:butt;stroke-linejoin:miter;stroke-opacity:1"
           d="m 1007.0925,231.33057 c -32.98425,11.35041 -61.30566,7.69824 -73.29987,3.90518 -9.86331,-3.11919 -9.73572,-12.49653 -9.77128,-11.47062 -0.33948,9.79642 12.0066,17.57783 12.43673,20.66137 0.16907,1.212 -0.51119,2.49827 -1.1946,3.77948 -24.91347,46.70555 11.7441,62.45068 47.7159,80.96685 2.64295,1.34341 6.52479,2.8116 10.28514,-0.99401 17.50688,-17.71752 60.31298,-38.77364 21.98328,-91.09513 -1.2948,-1.76751 4.9463,-10.22749 6.5864,-14.4377"
           id="path3058"
           sodipodi:nodetypes="csssscsss" />
        <path
           style="fill:none;stroke:#000000;stroke-width:1px;stroke-linecap:butt;stroke-linejoin:miter;stroke-opacity:1"
           d="m 924.05081,223.10141 c 21.16813,-21.60659 82.19229,-22.47323 96.52649,-14.1388 3.6804,2.13996 -6.8659,9.86098 -12.3637,13.04029 -24.08877,13.93036 -82.04065,7.24231 -84.1628,0.91993"
           id="path3840"
           sodipodi:nodetypes="cssc" />
        <path
           style="fill:none;stroke:#000000;stroke-width:1px;stroke-linecap:butt;stroke-linejoin:miter;stroke-opacity:1"
           d="m 928.7952,222.2328 c 24.3397,-18.35014 69.24951,-14.64562 81.5265,-9.67451 3.9461,1.59786 0.7836,3.17063 -4.8637,6.076 -23.57382,12.12799 -74.1046,8.39472 -76.6628,3.59851"
           id="path3840-6"
           sodipodi:nodetypes="cssc" />
        <path
           style="fill:none;stroke:#000000;stroke-width:1px;stroke-linecap:butt;stroke-linejoin:miter;stroke-opacity:1"
           d="m 1021.5757,210.81717 c 0.6974,5.26853 2.8581,9.00284 -1.4705,13.85682 -24.73154,15.78598 -67.46183,20.1128 -93.44888,7.0677"
           id="path3840-2"
           sodipodi:nodetypes="ccc" />
        <path
           style="opacity:0.62195123;fill:#b3b3b3;fill-opacity:1;stroke:none"
           d="m 957.18413,238.59698 c -9.03484,-0.672 -17.15237,-2.29625 -23.92649,-4.78749 -3.4954,-1.28547 -6.54421,-2.63158 -6.81886,-3.01067 -0.47288,-0.6527 -1.18418,-2.98692 -1.34598,-4.41704 l -0.17813,-1.5745 0.78629,0.40661 c 7.07913,3.66076 27.602,6.11611 45.43329,5.43562 15.04347,-0.5741 26.39195,-2.78964 34.84755,-6.80323 4.5668,-2.1677 10.4436,-6.33455 13.6429,-9.67342 1.4004,-1.46142 1.592,-1.58589 1.6947,-1.10082 0.9649,4.55739 0.9454,6.45898 -0.088,8.58675 -1.026,2.11244 -1.2774,2.35192 -4.322,4.11767 -10.8185,6.2743 -24.36307,10.40171 -40.53237,12.35135 -3.10843,0.3748 -16.16917,0.69407 -19.1929,0.46917 z"
           id="path4203" />
        <path
           style="opacity:0.62195123;fill:#b3b3b3;fill-opacity:1;stroke:none"
           d="m 957.70404,229.38368 c -11.32171,-0.45672 -22.40262,-2.07538 -28.49136,-4.16192 -2.41375,-0.82716 -3.97462,-1.5735 -3.97462,-1.90049 0,-0.84252 4.6616,-4.4691 8.54942,-6.65117 10.79289,-6.05761 26.80115,-10.17107 44.73613,-11.49532 16.49873,-1.21821 32.57009,0.23333 40.27979,3.63801 1.7985,0.7942 2.0812,1.20068 1.5744,2.26349 -0.5866,1.23012 -1.7891,2.51642 -4.3523,4.65552 -2.8693,2.39464 -7.5728,5.48335 -10.5692,6.94065 -7.98115,3.8816 -19.43089,6.13047 -34.2563,6.72836 -6.66462,0.26877 -6.40044,0.26911 -13.49596,-0.0171 z m 16.65269,-2.62194 c 14.47289,-1.4282 23.7885,-3.75078 32.25757,-8.0425 4.4766,-2.2685 6.002,-3.45394 6.002,-4.66437 0,-1.35272 -1.6487,-2.2263 -6.4958,-3.44193 -10.82745,-2.71548 -27.87368,-3.44693 -41.36022,-1.77475 -11.24248,1.39394 -21.68764,4.38954 -29.16816,8.36524 -2.92679,1.55551 -7.57614,4.64634 -7.57614,5.03653 0,0.49078 1.48405,1.48516 3.10573,2.08096 3.16548,1.16301 10.55898,2.30642 18.10747,2.80034 5.06263,0.33127 20.34285,0.11264 25.12755,-0.35952 z"
           id="path4205" />
      </g>
      <g
         transform="translate(-3.9285722,92.142857)"
         id="g4252">
        <path
           style="fill:#ffff00;stroke:#000000;stroke-width:1px;stroke-linecap:butt;stroke-linejoin:miter;stroke-opacity:1"
           d="m 1105.5218,364.65912 24.2437,-60.8617"
           id="path3886"
           sodipodi:nodetypes="cc" />
        <path
           style="fill:#ffff00;stroke:#000000;stroke-width:1px;stroke-linecap:butt;stroke-linejoin:miter;stroke-opacity:1"
           d="m 1115.8759,365.29047 24.2436,-60.8617"
           id="path3886-9"
           sodipodi:nodetypes="cc" />
        <path
           style="fill:#ffff00;stroke:#000000;stroke-width:1px;stroke-linecap:butt;stroke-linejoin:miter;stroke-opacity:1"
           d="m 1107.986,366.61706 25.315,-63.45098"
           id="path3886-9-7"
           sodipodi:nodetypes="cc" />
        <path
           style="fill:#ffff00;stroke:#000000;stroke-width:1px;stroke-linecap:butt;stroke-linejoin:miter;stroke-opacity:1"
           d="m 1113.7357,364.9806 24.8686,-62.06706"
           id="path3886-9-4"
           sodipodi:nodetypes="cc" />
        <path
           style="fill:#ffff00;stroke:#000000;stroke-width:1px;stroke-linecap:butt;stroke-linejoin:miter;stroke-opacity:1"
           d="m 1127.656,304.17932 c 6.1027,-1.03914 10.3187,-2.07344 13.1852,0.57185 1.7,1.56886 6.4674,-19.53653 6.5127,-18.24953"
           id="path3941-4"
           sodipodi:nodetypes="csc" />
        <path
           style="fill:#ffff00;stroke:#000000;stroke-width:1px;stroke-linecap:butt;stroke-linejoin:miter;stroke-opacity:1"
           d="m 1127.7452,304.17623 10.6066,-22.09708"
           id="path3965"
           sodipodi:nodetypes="cc" />
        <path
           style="fill:#ffff00;stroke:#000000;stroke-width:1px;stroke-linecap:butt;stroke-linejoin:miter;stroke-opacity:1"
           d="m 1138.2887,282.44097 c 7.4268,-0.18675 8.112,0.4 9.0913,3.6618"
           id="path3941-4-6"
           sodipodi:nodetypes="cc" />
        <path
           style="fill:#ffff00;stroke:#000000;stroke-width:1px;stroke-linecap:butt;stroke-linejoin:miter;stroke-opacity:1"
           d="m 1145.1703,283.6575 c -2.3135,5.33671 -4.316,11.60676 -6.9468,15.99162 -1.3909,-0.16104 -3.0404,1.48738 -4.1321,-0.76825 1.4558,-5.53744 4.6922,-11.07488 7.0383,-16.61232"
           id="path3965-7"
           sodipodi:nodetypes="cccc" />
        <path
           style="opacity:0.62195123;fill:#ffff00;fill-opacity:1;stroke:none"
           d="m 1129.0788,302.76213 c 0,-0.0281 2.1273,-4.48161 4.7274,-9.89664 l 4.7273,-9.8455 0.4435,-0.0388 c 0.244,-0.0214 0.5844,0.0355 0.7566,0.12626 l 0.3131,0.1651 -1.109,2.39911 c -0.6099,1.31951 -1.5199,3.27984 -2.0221,4.35628 -1.3367,2.86489 -2.0984,4.73443 -2.8158,6.91147 l -0.6376,1.93452 -1.655,1.47987 c -0.9103,0.81392 -1.8966,1.70028 -2.1918,1.96967 -0.2951,0.2694 -0.5366,0.4668 -0.5366,0.43868 z"
           id="path4068" />
        <path
           style="opacity:0.62195123;fill:#ffff00;fill-opacity:1;stroke:none"
           d="m 1143.3472,289.78237 c 0,-0.0992 0.3017,-0.86506 1.7256,-4.38041 0.039,-0.0975 0.3182,-0.0402 0.8709,0.17906 0.6454,0.25608 0.8108,0.3766 0.8032,0.58535 -0.024,0.65079 -0.3666,1.10848 -1.7934,2.39462 -0.818,0.73737 -1.514,1.34066 -1.5468,1.34066 -0.033,0 -0.059,-0.0537 -0.059,-0.11928 z"
           id="path4070" />
        <path
           style="fill:#ffff00;stroke:#000000;stroke-width:1px;stroke-linecap:butt;stroke-linejoin:miter;stroke-opacity:1"
           d="m 1114.487,341.17308 c -3.4104,-2.8182 -2.6643,-7.74532 -2.5249,-7.99927 4.2079,-7.66583 19.9389,-3.26844 20.588,3.7097 0.047,0.51008 0.134,5.20258 -7.666,7.65127 -0.5139,0.16134 2.1882,-2.76401 0.1756,-4.95176 -0.9522,-1.03501 -4.7216,-3.58724 -7.8059,-3.01515 -1.8089,0.33554 -1.6538,3.86009 -2.6406,4.6052"
           id="path3941"
           sodipodi:nodetypes="csssssc" />
        <path
           style="opacity:0.62195123;fill:#cccccc;fill-opacity:1;stroke:none"
           d="m 1125.5137,329.47274 c -0.625,-0.22994 -1.2705,-0.47044 -1.4343,-0.53445 -0.1957,-0.0764 1.4093,-4.40699 4.6762,-12.61702 l 4.9741,-12.50064 1.6116,-0.0761 c 0.8864,-0.0419 1.7174,0.0296 1.8466,0.15884 0.2836,0.28353 -9.9088,26.06863 -10.2852,26.02007 -0.1389,-0.0179 -0.7639,-0.22071 -1.389,-0.45065 z"
           id="path4091" />
        <path
           style="opacity:0.62195123;fill:#cccccc;fill-opacity:1;stroke:none"
           d="m 1121.0269,328.48483 c -0.24,-0.15235 0.8582,-3.16378 4.3962,-12.05483 2.5939,-6.51846 4.8402,-11.93524 4.9919,-12.03729 0.3271,-0.22004 1.6647,-0.25767 1.6647,-0.0468 0,0.0806 -2.1675,5.59219 -4.8167,12.2481 -4.2993,10.80181 -4.8757,12.10123 -5.3664,12.09778 -0.3024,-0.002 -0.6937,-0.0953 -0.8697,-0.20694 z"
           id="path4093" />
        <path
           style="opacity:0.62195123;fill:#cccccc;fill-opacity:1;stroke:none"
           d="m 1128.2917,330.64596 c 0,-0.0385 2.3584,-6.00032 5.241,-13.24851 3.5986,-9.0488 5.3331,-13.12161 5.5349,-12.99691 0.391,0.24165 -9.9514,26.3154 -10.4383,26.3154 -0.1857,0 -0.3376,-0.0315 -0.3376,-0.07 z"
           id="path4097" />
        <path
           style="fill:none;stroke:#000000;stroke-width:1px;stroke-linecap:butt;stroke-linejoin:miter;stroke-opacity:1"
           d="m 1105.5563,364.35977 c -0.585,5.42247 6.6597,-0.0293 10.0893,0.71429"
           id="path4101"
           sodipodi:nodetypes="cc" />
        <path
           style="opacity:0.62195123;fill:#b3b3b3;fill-opacity:1;stroke:none"
           d="m 1125.5189,329.41872 c -0.7121,-0.24754 -1.3291,-0.48263 -1.3712,-0.52244 -0.1709,-0.16155 1.4899,-4.59788 5.5484,-14.82108 3.7038,-9.32953 4.0232,-10.11462 4.147,-10.1932 0.1311,-0.0832 2.9306,-0.10145 3.1417,-0.0205 0.078,0.0298 0.1412,0.11078 0.1412,0.17993 0,0.8823 -9.9264,25.86656 -10.2633,25.83231 -0.027,-0.003 -0.6318,-0.20753 -1.3438,-0.45506 z"
           id="path4119" />
        <path
           style="opacity:0.62195123;fill:#b3b3b3;fill-opacity:1;stroke:none"
           d="m 1121.2555,328.53671 c -0.1105,-0.0444 -0.2009,-0.15373 -0.2009,-0.24292 0,-0.63763 2.72,-7.73705 6.9015,-18.01323 1.5751,-3.87093 2.3471,-5.65714 2.5256,-5.84372 0.1819,-0.19016 1.5212,-0.19422 1.4843,-0.004 -0.082,0.42353 -6.5994,16.856 -8.2462,20.79223 -1.2535,2.9963 -1.4932,3.40814 -1.9778,3.39854 -0.1571,-0.003 -0.376,-0.042 -0.4865,-0.0864 z"
           id="path4121" />
        <path
           style="opacity:0.62195123;fill:#b3b3b3;fill-opacity:1;stroke:none"
           d="m 1128.3988,330.5261 c 0.055,-0.19535 3.9104,-9.94471 5.9438,-15.02869 2.7201,-6.80092 4.4989,-10.98651 4.6182,-10.8672 0.2756,0.27562 -8.2942,22.04005 -10.0405,25.49936 -0.1673,0.33141 -0.3363,0.55278 -0.4221,0.55278 -0.093,0 -0.1279,-0.0543 -0.099,-0.15625 z"
           id="path4123" />
        <path
           style="opacity:0.62195123;fill:#ffe600;fill-opacity:1;stroke:none"
           d="m 1126.0881,343.12773 c 0.257,-0.62073 0.3113,-1.93941 0.1105,-2.68505 -0.529,-1.96484 -5.056,-4.51046 -8.0388,-4.52041 -1.7417,-0.006 -2.5517,0.7655 -3.2436,3.08886 -0.1993,0.66918 -0.4459,1.18886 -0.5479,1.15484 -0.3617,-0.12057 -1.3922,-2.02941 -1.6619,-3.0785 -0.1505,-0.58537 -0.2736,-1.62569 -0.2736,-2.31183 0,-1.04577 0.073,-1.3536 0.4545,-1.90337 1.5868,-2.28974 4.9268,-3.429 8.8077,-3.00426 5.6175,0.61479 10.4577,4.20682 10.1619,7.54152 -0.1082,1.21923 -0.7218,2.45912 -1.7281,3.49184 -0.8009,0.82192 -2.8912,2.17786 -3.7498,2.43236 -0.3693,0.10948 -0.4097,0.0809 -0.2909,-0.206 l 0,0 z"
           id="path4127" />
        <path
           style="opacity:0.62195123;fill:#ffe600;fill-opacity:1;stroke:none"
           d="m 1140.6647,303.88731 c -0.1107,-0.13346 -0.6995,-0.46621 -1.3083,-0.73943 -1.6089,-0.72205 -4.2585,-0.79647 -7.8611,-0.22079 -1.4487,0.23149 -2.6281,0.37674 -2.6209,0.32278 0.015,-0.11446 4.4066,-4.00567 4.5933,-4.07009 0.069,-0.0239 0.2646,0.20045 0.4343,0.4985 0.1696,0.29805 0.5837,0.65691 0.9201,0.79748 0.5388,0.22514 0.8059,0.21933 2.2431,-0.0488 l 1.6314,-0.30433 1.044,-2.05688 c 0.5742,-1.13128 1.5394,-3.26223 2.1449,-4.73545 l 1.1009,-2.67857 1.6418,-1.54866 c 0.903,-0.85176 1.6574,-1.53306 1.6765,-1.51399 0.072,0.0716 -2.6243,9.60346 -3.3437,11.82235 -0.7925,2.44473 -1.6139,4.42123 -1.9143,4.60693 -0.099,0.0614 -0.2712,0.002 -0.382,-0.13109 z"
           id="path4129" />
        <path
           style="opacity:0.62195123;fill:#ffe600;fill-opacity:1;stroke:none"
           d="m 1135.0272,299.13955 c -0.3065,-0.33867 -0.2968,-0.41532 0.2662,-2.09822 0.6514,-1.94737 1.8262,-4.70165 3.8057,-8.92242 0.7285,-1.55335 1.609,-3.4434 1.9566,-4.2001 l 0.6321,-1.37581 0.993,0.34903 c 0.5462,0.19196 1.1511,0.34903 1.3442,0.34903 0.193,0 0.3927,0.0674 0.4436,0.14976 0.177,0.28651 -4.7746,12.28415 -6.0143,14.57236 -0.5534,1.02142 -0.6121,1.0699 -1.5572,1.28707 -1.3312,0.30588 -1.5021,0.29576 -1.8699,-0.1107 z"
           id="path4131" />
        <path
           style="opacity:0.62195123;fill:#ffe600;fill-opacity:1;stroke:none"
           d="m 1143.5394,289.49106 c 0.417,-1.07106 1.6099,-4.02438 1.6368,-4.05194 0.018,-0.0188 0.3723,0.11776 0.7868,0.30335 0.7196,0.3222 0.7451,0.35999 0.5641,0.83765 -0.2269,0.59897 -0.6237,1.04048 -2.0306,2.25932 -0.5838,0.50571 -1.0144,0.79894 -0.9571,0.65162 z"
           id="path4133" />
        <path
           style="opacity:0.62195123;fill:#cccccc;fill-opacity:1;stroke:none"
           d="m 1129.5767,302.05337 c 6e-4,-0.0834 1.8528,-4.00874 4.116,-8.72303 2.2632,-4.71428 4.2816,-8.95312 4.4852,-9.41964 0.3076,-0.70445 0.4498,-0.84775 0.8394,-0.84548 0.9771,0.006 0.9627,0.15754 -0.2625,2.77253 -2.2316,4.76297 -3.7846,8.3982 -4.536,10.61759 -0.7016,2.07252 -0.8212,2.29337 -1.6726,3.08823 -1.7112,1.59754 -2.9705,2.66194 -2.9695,2.5098 z"
           id="path4135" />
        <path
           style="opacity:0.62195123;fill:#ffff00;fill-opacity:1;stroke:none"
           d="m 1130.0445,301.13116 c 0.4668,-1.01932 2.2043,-4.67996 5.643,-11.8894 2.0861,-4.37363 2.8469,-5.88558 3.0295,-6.02063 0.2044,-0.15116 0.2983,-0.16666 0.5803,-0.0958 0.3202,0.0804 0.3356,0.1009 0.3166,0.42092 -0.012,0.20346 -0.3782,1.12032 -0.9264,2.32005 -2.4712,5.40835 -3.355,7.46739 -4.2431,9.88542 -0.9938,2.70562 -1.0201,2.76213 -1.5508,3.33597 -0.5495,0.59418 -3.0261,2.82475 -3.1363,2.82475 -0.039,0 0.09,-0.35157 0.2872,-0.78125 z"
           id="path4155" />
        <path
           style="opacity:0.62195123;fill:#ffff00;fill-opacity:1;stroke:none"
           d="m 1129.8571,301.68374 c 0,-0.0684 5.0664,-10.75086 6.9853,-14.7284 1.3304,-2.75766 1.7701,-3.58522 1.9789,-3.7246 0.1368,-0.0913 0.5188,-0.082 0.6745,0.0165 0.2078,0.13146 -0.027,0.73973 -2.0027,5.18304 -2.0175,4.53799 -2.2307,5.04641 -3.2535,7.75887 -0.3963,1.05086 -0.8228,2.08533 -0.948,2.29883 -0.1251,0.21349 -0.8787,0.99428 -1.6747,1.73508 -1.3549,1.26092 -1.7598,1.597 -1.7598,1.4607 z"
           id="path4157" />
        <path
           sodipodi:nodetypes="cscccccscc"
           style="fill:#cccccc;fill-opacity:1;stroke:none"
           d="m 1109.0869,365.56939 c 0.1054,-0.68233 10.8289,-27.81616 11.1981,-27.95857 0.2196,-0.0847 1.8515,0.5439 2.6688,1.12591 l 0.5033,0.35833 c -1.6977,4.2567 -3.0543,8.70916 -5.0212,12.80431 -1.5547,4.10449 -3.4962,8.46181 -5.1997,12.71503 l -0.7143,0.18971 c -0.3928,0.10434 -1.3454,0.38771 -2.1169,0.62972 -1.2475,0.39135 -1.3933,0.40635 -1.3181,0.13556 l 0,0 z"
           id="path4246" />
        <path
           sodipodi:nodetypes="csssssssc"
           style="fill:#cccccc;fill-opacity:1;stroke:none"
           d="m 1106.5844,365.97316 c -0.2619,-0.18391 -0.4017,-0.46516 -0.4017,-0.80835 0,-0.25245 2.5567,-7.44073 5.315,-14.44476 2.6162,-6.64283 5.436,-13.12003 5.6236,-13.35689 0.099,-0.1248 0.5663,-0.22322 1.0595,-0.22322 0.76,0 0.8691,0.0435 0.7831,0.3125 -0.055,0.17188 -2.5666,6.78987 -5.6907,14.59753 -3.5507,8.87373 -5.8665,14.12496 -6.0282,14.15584 -0.1423,0.0272 -0.4396,-0.0775 -0.6606,-0.23265 z"
           id="path4248" />
        <path
           sodipodi:nodetypes="csssc"
           style="fill:#cccccc;fill-opacity:1;stroke:none"
           d="m 1119.0957,353.0029 c 4.4584,-11.79943 5.5223,-13.18518 5.8039,-12.8119 0.3338,0.44239 0.6751,-0.58498 -5.7341,15.56265 -3.3428,8.42207 -3.6235,8.70307 -4.0812,8.70536 -0.4688,0.002 -0.8718,0.75291 4.0114,-11.45611 z"
           id="path4250" />
      </g>
      <path
         sodipodi:nodetypes="ccsc"
         id="path4282"
         d="m 1043.3036,457.45148 c 10.6538,-11.46101 26.7081,-23.46974 61.1839,-12.91202 -1.6733,0.38122 -27.2449,10.36022 -9.3121,15.51304 9.7665,2.80631 -58.5597,3.38619 -51.6932,-2.86889"
         style="fill:#008000;stroke:#000000;stroke-width:1px;stroke-linecap:butt;stroke-linejoin:miter;stroke-opacity:1" />
      <path
         id="path4286"
         d="m 1096.1039,459.83535 c -0.1473,-0.0913 -1.0699,-0.45068 -2.0502,-0.79853 -2.1682,-0.76931 -3.0456,-1.26752 -3.9022,-2.21572 -1.1599,-1.28389 -0.8781,-2.48786 1.0287,-4.3947 1.6997,-1.69963 5.8631,-4.15074 10.3701,-6.10517 1.3973,-0.60592 3.7723,-1.47379 4.0332,-1.47379 0.072,0 -0.9062,2.58942 -2.1742,5.75426 -1.8451,4.60538 -2.3054,5.92689 -2.3054,6.61889 0,0.81352 0.2269,1.5236 0.5562,1.74064 0.08,0.0528 -0.9566,0.28206 -2.3036,0.50956 -1.3469,0.2275 -2.5695,0.43997 -2.7169,0.47214 -0.1473,0.0322 -0.3884,-0.0162 -0.5357,-0.10758 z"
         style="fill:#065300;fill-opacity:1;stroke:none" />
      <path
         id="path4288"
         d="m 1113.2963,455.69566 c 2.3232,-5.91048 3.5697,-9.00057 3.673,-9.10502 0.3466,-0.3505 7.3977,1.75867 8.2072,2.45502 l 0.4776,0.41084 -0.3554,0.40015 c -0.542,0.61012 -1.9087,1.43786 -5.114,3.09729 -2.6498,1.37186 -6.2939,2.96493 -6.782,2.96493 -0.1068,0 -0.1547,-0.10044 -0.1064,-0.22321 z"
         style="fill:#065300;fill-opacity:1;stroke:none" />
    </g>
    <rect
       style="fill:none;stroke:#000000;stroke-width:0.5;stroke-miterlimit:4;stroke-opacity:1;stroke-dasharray:none"
       id="rect4489"
       width="78.58268"
       height="73.614868"
       x="0.26785883"
       y="0.23720199"
       transform="translate(816.90733,456.0393)" />
  </g>
</svg>
